<mxfile host="Electron" modified="2023-05-19T13:05:49.270Z" agent="Mozilla/5.0 (Windows NT 10.0; Win64; x64) AppleWebKit/537.36 (KHTML, like Gecko) draw.io/21.2.8 Chrome/112.0.5615.165 Electron/24.2.0 Safari/537.36" etag="C6adBPdJWfqqT5_qaHMQ" version="21.2.8" type="device">
  <diagram name="Page-1" id="03018318-947c-dd8e-b7a3-06fadd420f32">
    <mxGraphModel dx="1434" dy="844" grid="1" gridSize="10" guides="1" tooltips="1" connect="1" arrows="1" fold="1" page="1" pageScale="1" pageWidth="1100" pageHeight="850" background="#ffffff" math="0" shadow="0">
      <root>
        <mxCell id="0" />
        <mxCell id="1" parent="0" />
        <mxCell id="677b7b8949515195-1" value="" style="whiteSpace=wrap;html=1;rounded=0;shadow=0;labelBackgroundColor=none;strokeColor=#000000;strokeWidth=1;fillColor=none;fontFamily=Verdana;fontSize=12;fontColor=#000000;align=center;comic=1;" parent="1" vertex="1">
          <mxGeometry x="20" y="20" width="1060" height="810" as="geometry" />
        </mxCell>
        <mxCell id="677b7b8949515195-2" value="&lt;font style=&quot;font-size: 24px;&quot;&gt;LOGO&lt;/font&gt;" style="whiteSpace=wrap;html=1;rounded=0;shadow=0;labelBackgroundColor=none;strokeWidth=1;fontFamily=Verdana;fontSize=28;align=center;comic=1;" parent="1" vertex="1">
          <mxGeometry x="1000" y="30" width="70" height="40" as="geometry" />
        </mxCell>
        <mxCell id="677b7b8949515195-8" value="" style="whiteSpace=wrap;html=1;rounded=0;shadow=0;labelBackgroundColor=none;strokeWidth=1;fillColor=none;fontFamily=Verdana;fontSize=12;align=center;comic=1;" parent="1" vertex="1">
          <mxGeometry x="30" y="610" width="330" height="210" as="geometry" />
        </mxCell>
        <mxCell id="677b7b8949515195-9" value="" style="line;strokeWidth=1;html=1;rounded=0;shadow=0;labelBackgroundColor=none;fillColor=none;fontFamily=Verdana;fontSize=14;fontColor=#000000;align=center;comic=1;" parent="1" vertex="1">
          <mxGeometry x="20" y="70" width="1060" height="10" as="geometry" />
        </mxCell>
        <mxCell id="677b7b8949515195-10" value="" style="whiteSpace=wrap;html=1;rounded=0;shadow=0;labelBackgroundColor=none;strokeWidth=1;fillColor=none;fontFamily=Verdana;fontSize=12;align=center;comic=1;" parent="1" vertex="1">
          <mxGeometry x="30" y="80" width="1050" height="50" as="geometry" />
        </mxCell>
        <mxCell id="677b7b8949515195-11" value="Home" style="text;html=1;points=[];align=left;verticalAlign=top;spacingTop=-4;fontSize=14;fontFamily=Verdana" parent="1" vertex="1">
          <mxGeometry x="40" y="95" width="60" height="15" as="geometry" />
        </mxCell>
        <mxCell id="677b7b8949515195-12" value="Import/Export" style="text;html=1;points=[];align=left;verticalAlign=top;spacingTop=-4;fontSize=14;fontFamily=Verdana" parent="1" vertex="1">
          <mxGeometry x="120" y="95" width="60" height="20" as="geometry" />
        </mxCell>
        <mxCell id="677b7b8949515195-13" value="Analysis tools" style="text;html=1;points=[];align=left;verticalAlign=top;spacingTop=-4;fontSize=14;fontFamily=Verdana" parent="1" vertex="1">
          <mxGeometry x="260" y="95" width="60" height="20" as="geometry" />
        </mxCell>
        <mxCell id="677b7b8949515195-14" value="QR Marker Configuration&amp;nbsp;" style="text;html=1;points=[];align=left;verticalAlign=top;spacingTop=-4;fontSize=14;fontFamily=Verdana" parent="1" vertex="1">
          <mxGeometry x="400" y="95" width="60" height="20" as="geometry" />
        </mxCell>
        <mxCell id="677b7b8949515195-16" value="" style="verticalLabelPosition=bottom;shadow=0;dashed=0;align=center;html=1;verticalAlign=top;strokeWidth=1;shape=mxgraph.mockup.graphics.simpleIcon;strokeColor=#999999;rounded=0;labelBackgroundColor=none;fontFamily=Verdana;fontSize=14;fontColor=#000000;comic=1;" parent="1" vertex="1">
          <mxGeometry x="70" y="180" width="480" height="330" as="geometry" />
        </mxCell>
        <mxCell id="qwBX4drv_svDkVCXMGxv-3" value="Playback options" style="whiteSpace=wrap;html=1;rounded=0;shadow=0;labelBackgroundColor=none;strokeWidth=1;fillColor=none;fontFamily=Verdana;fontSize=12;align=center;comic=1;" parent="1" vertex="1">
          <mxGeometry x="70" y="530" width="480" height="50" as="geometry" />
        </mxCell>
        <mxCell id="qwBX4drv_svDkVCXMGxv-4" value="General Analytics&amp;nbsp;" style="text;html=1;points=[];align=left;verticalAlign=top;spacingTop=-4;fontSize=14;fontFamily=Verdana" parent="1" vertex="1">
          <mxGeometry x="130" y="625" width="60" height="15" as="geometry" />
        </mxCell>
        <mxCell id="qwBX4drv_svDkVCXMGxv-5" value="Time Frame&amp;nbsp;" style="text;html=1;points=[];align=left;verticalAlign=top;spacingTop=-4;fontSize=14;fontFamily=Verdana" parent="1" vertex="1">
          <mxGeometry x="40" y="655" width="60" height="15" as="geometry" />
        </mxCell>
        <mxCell id="qwBX4drv_svDkVCXMGxv-7" value="Fixation points&amp;nbsp;" style="text;html=1;points=[];align=left;verticalAlign=top;spacingTop=-4;fontSize=14;fontFamily=Verdana" parent="1" vertex="1">
          <mxGeometry x="40" y="687.5" width="60" height="15" as="geometry" />
        </mxCell>
        <mxCell id="qwBX4drv_svDkVCXMGxv-8" value="Saccade Time" style="text;html=1;points=[];align=left;verticalAlign=top;spacingTop=-4;fontSize=14;fontFamily=Verdana" parent="1" vertex="1">
          <mxGeometry x="40" y="715" width="60" height="15" as="geometry" />
        </mxCell>
        <mxCell id="qwBX4drv_svDkVCXMGxv-9" value="Fixation to Saccade ratio" style="text;html=1;points=[];align=left;verticalAlign=top;spacingTop=-4;fontSize=14;fontFamily=Verdana" parent="1" vertex="1">
          <mxGeometry x="40" y="745" width="60" height="15" as="geometry" />
        </mxCell>
        <mxCell id="qwBX4drv_svDkVCXMGxv-10" value="" style="rounded=1;whiteSpace=wrap;html=1;" parent="1" vertex="1">
          <mxGeometry x="140" y="655" width="120" height="20" as="geometry" />
        </mxCell>
        <mxCell id="qwBX4drv_svDkVCXMGxv-11" value="" style="whiteSpace=wrap;html=1;rounded=0;shadow=0;labelBackgroundColor=none;strokeWidth=1;fillColor=none;fontFamily=Verdana;fontSize=12;align=center;comic=1;" parent="1" vertex="1">
          <mxGeometry x="380" y="610" width="330" height="210" as="geometry" />
        </mxCell>
        <mxCell id="qwBX4drv_svDkVCXMGxv-19" value="QR Space Analytics" style="text;html=1;points=[];align=left;verticalAlign=top;spacingTop=-4;fontSize=14;fontFamily=Verdana" parent="1" vertex="1">
          <mxGeometry x="480" y="625" width="60" height="15" as="geometry" />
        </mxCell>
        <mxCell id="qwBX4drv_svDkVCXMGxv-20" value="Time Frame&amp;nbsp;" style="text;html=1;points=[];align=left;verticalAlign=top;spacingTop=-4;fontSize=14;fontFamily=Verdana" parent="1" vertex="1">
          <mxGeometry x="400" y="655" width="60" height="15" as="geometry" />
        </mxCell>
        <mxCell id="qwBX4drv_svDkVCXMGxv-21" value="Fixation points&amp;nbsp;" style="text;html=1;points=[];align=left;verticalAlign=top;spacingTop=-4;fontSize=14;fontFamily=Verdana" parent="1" vertex="1">
          <mxGeometry x="400" y="687.5" width="60" height="15" as="geometry" />
        </mxCell>
        <mxCell id="qwBX4drv_svDkVCXMGxv-22" value="Saccade Time" style="text;html=1;points=[];align=left;verticalAlign=top;spacingTop=-4;fontSize=14;fontFamily=Verdana" parent="1" vertex="1">
          <mxGeometry x="400" y="715" width="60" height="15" as="geometry" />
        </mxCell>
        <mxCell id="qwBX4drv_svDkVCXMGxv-23" value="Fixation to Saccade ratio" style="text;html=1;points=[];align=left;verticalAlign=top;spacingTop=-4;fontSize=14;fontFamily=Verdana" parent="1" vertex="1">
          <mxGeometry x="400" y="745" width="60" height="15" as="geometry" />
        </mxCell>
        <mxCell id="qwBX4drv_svDkVCXMGxv-24" value="" style="rounded=1;whiteSpace=wrap;html=1;" parent="1" vertex="1">
          <mxGeometry x="500" y="655" width="120" height="20" as="geometry" />
        </mxCell>
        <mxCell id="qwBX4drv_svDkVCXMGxv-25" value="" style="whiteSpace=wrap;html=1;rounded=0;shadow=0;labelBackgroundColor=none;strokeWidth=1;fillColor=none;fontFamily=Verdana;fontSize=12;align=center;comic=1;" parent="1" vertex="1">
          <mxGeometry x="730" y="610" width="330" height="210" as="geometry" />
        </mxCell>
        <mxCell id="qwBX4drv_svDkVCXMGxv-26" value="AOI Analytics" style="text;html=1;points=[];align=left;verticalAlign=top;spacingTop=-4;fontSize=14;fontFamily=Verdana" parent="1" vertex="1">
          <mxGeometry x="860" y="625" width="60" height="15" as="geometry" />
        </mxCell>
        <mxCell id="qwBX4drv_svDkVCXMGxv-27" value="Time Frame&amp;nbsp;" style="text;html=1;points=[];align=left;verticalAlign=top;spacingTop=-4;fontSize=14;fontFamily=Verdana" parent="1" vertex="1">
          <mxGeometry x="750" y="655" width="60" height="15" as="geometry" />
        </mxCell>
        <mxCell id="qwBX4drv_svDkVCXMGxv-28" value="Fixation points&amp;nbsp;" style="text;html=1;points=[];align=left;verticalAlign=top;spacingTop=-4;fontSize=14;fontFamily=Verdana" parent="1" vertex="1">
          <mxGeometry x="750" y="687.5" width="60" height="15" as="geometry" />
        </mxCell>
        <mxCell id="qwBX4drv_svDkVCXMGxv-29" value="Saccade Time" style="text;html=1;points=[];align=left;verticalAlign=top;spacingTop=-4;fontSize=14;fontFamily=Verdana" parent="1" vertex="1">
          <mxGeometry x="750" y="715" width="60" height="15" as="geometry" />
        </mxCell>
        <mxCell id="qwBX4drv_svDkVCXMGxv-30" value="Fixation to Saccade ratio" style="text;html=1;points=[];align=left;verticalAlign=top;spacingTop=-4;fontSize=14;fontFamily=Verdana" parent="1" vertex="1">
          <mxGeometry x="750" y="745" width="60" height="15" as="geometry" />
        </mxCell>
        <mxCell id="qwBX4drv_svDkVCXMGxv-31" value="" style="rounded=1;whiteSpace=wrap;html=1;" parent="1" vertex="1">
          <mxGeometry x="850" y="655" width="120" height="20" as="geometry" />
        </mxCell>
        <mxCell id="qwBX4drv_svDkVCXMGxv-34" value="Pupilometry time evolution" style="text;html=1;points=[];align=left;verticalAlign=top;spacingTop=-4;fontSize=14;fontFamily=Verdana" parent="1" vertex="1">
          <mxGeometry x="40" y="775" width="60" height="15" as="geometry" />
        </mxCell>
        <mxCell id="qwBX4drv_svDkVCXMGxv-36" value="Pupilometry time evolution" style="text;html=1;points=[];align=left;verticalAlign=top;spacingTop=-4;fontSize=14;fontFamily=Verdana" parent="1" vertex="1">
          <mxGeometry x="400" y="775" width="60" height="15" as="geometry" />
        </mxCell>
        <mxCell id="qwBX4drv_svDkVCXMGxv-37" value="Pupilometry time evolution" style="text;html=1;points=[];align=left;verticalAlign=top;spacingTop=-4;fontSize=14;fontFamily=Verdana" parent="1" vertex="1">
          <mxGeometry x="750" y="775" width="60" height="15" as="geometry" />
        </mxCell>
        <mxCell id="qwBX4drv_svDkVCXMGxv-38" value="" style="verticalLabelPosition=bottom;shadow=0;dashed=0;align=center;html=1;verticalAlign=top;strokeWidth=1;shape=mxgraph.mockup.graphics.simpleIcon;strokeColor=#999999;rounded=0;labelBackgroundColor=none;fontFamily=Verdana;fontSize=14;fontColor=#000000;comic=1;" parent="1" vertex="1">
          <mxGeometry x="560" y="180" width="480" height="330" as="geometry" />
        </mxCell>
        <mxCell id="qwBX4drv_svDkVCXMGxv-39" value="Playback options - video in QR space with overlays - if enabled" style="whiteSpace=wrap;html=1;rounded=0;shadow=0;labelBackgroundColor=none;strokeWidth=1;fillColor=none;fontFamily=Verdana;fontSize=12;align=center;comic=1;" parent="1" vertex="1">
          <mxGeometry x="560" y="530" width="480" height="50" as="geometry" />
        </mxCell>
        <mxCell id="qwBX4drv_svDkVCXMGxv-40" value="" style="rounded=0;whiteSpace=wrap;html=1;" parent="1" vertex="1">
          <mxGeometry x="310" y="125" width="160" height="225" as="geometry" />
        </mxCell>
        <mxCell id="qwBX4drv_svDkVCXMGxv-41" value="Fixation points" style="text;html=1;points=[];align=left;verticalAlign=top;spacingTop=-4;fontSize=14;fontFamily=Verdana" parent="1" vertex="1">
          <mxGeometry x="320" y="135" width="60" height="15" as="geometry" />
        </mxCell>
        <mxCell id="qwBX4drv_svDkVCXMGxv-42" value="Saccades" style="text;html=1;points=[];align=left;verticalAlign=top;spacingTop=-4;fontSize=14;fontFamily=Verdana" parent="1" vertex="1">
          <mxGeometry x="320" y="165" width="60" height="15" as="geometry" />
        </mxCell>
        <mxCell id="qwBX4drv_svDkVCXMGxv-43" value="Pupilommetry" style="text;html=1;points=[];align=left;verticalAlign=top;spacingTop=-4;fontSize=14;fontFamily=Verdana" parent="1" vertex="1">
          <mxGeometry x="320" y="200" width="60" height="15" as="geometry" />
        </mxCell>
        <mxCell id="qwBX4drv_svDkVCXMGxv-44" value="Heat map" style="text;html=1;points=[];align=left;verticalAlign=top;spacingTop=-4;fontSize=14;fontFamily=Verdana" parent="1" vertex="1">
          <mxGeometry x="320" y="235" width="60" height="15" as="geometry" />
        </mxCell>
        <mxCell id="qwBX4drv_svDkVCXMGxv-45" value="Area Of Interest" style="text;html=1;points=[];align=left;verticalAlign=top;spacingTop=-4;fontSize=14;fontFamily=Verdana" parent="1" vertex="1">
          <mxGeometry x="320" y="275" width="120" height="40" as="geometry" />
        </mxCell>
        <mxCell id="qwBX4drv_svDkVCXMGxv-46" value="ScanPaths" style="text;html=1;points=[];align=left;verticalAlign=top;spacingTop=-4;fontSize=14;fontFamily=Verdana" parent="1" vertex="1">
          <mxGeometry x="320" y="315" width="60" height="15" as="geometry" />
        </mxCell>
        <mxCell id="DGjHxEZLVoVTAHSdxR3i-1" value="" style="rounded=0;whiteSpace=wrap;html=1;" parent="1" vertex="1">
          <mxGeometry x="540" y="135" width="260" height="115" as="geometry" />
        </mxCell>
        <mxCell id="DGjHxEZLVoVTAHSdxR3i-3" value="Configure Saccades" style="text;html=1;strokeColor=none;fillColor=none;align=center;verticalAlign=middle;whiteSpace=wrap;rounded=0;" parent="1" vertex="1">
          <mxGeometry x="595" y="135" width="150" height="30" as="geometry" />
        </mxCell>
        <mxCell id="DGjHxEZLVoVTAHSdxR3i-4" value="minimum distance px" style="text;html=1;align=center;verticalAlign=middle;resizable=0;points=[];autosize=1;strokeColor=none;fillColor=none;" parent="1" vertex="1">
          <mxGeometry x="530" y="162.5" width="140" height="30" as="geometry" />
        </mxCell>
        <mxCell id="DGjHxEZLVoVTAHSdxR3i-5" value="Numbering" style="text;html=1;align=center;verticalAlign=middle;resizable=0;points=[];autosize=1;strokeColor=none;fillColor=none;" parent="1" vertex="1">
          <mxGeometry x="540" y="187.5" width="80" height="30" as="geometry" />
        </mxCell>
        <mxCell id="DGjHxEZLVoVTAHSdxR3i-6" value="25" style="rounded=0;whiteSpace=wrap;html=1;" parent="1" vertex="1">
          <mxGeometry x="670" y="167.5" width="105" height="20" as="geometry" />
        </mxCell>
        <mxCell id="DGjHxEZLVoVTAHSdxR3i-7" value="x" style="rounded=0;whiteSpace=wrap;html=1;" parent="1" vertex="1">
          <mxGeometry x="670" y="192.5" width="25" height="20" as="geometry" />
        </mxCell>
        <mxCell id="DGjHxEZLVoVTAHSdxR3i-9" value="" style="endArrow=classic;html=1;rounded=0;exitX=0.994;exitY=0.228;exitDx=0;exitDy=0;exitPerimeter=0;" parent="1" source="qwBX4drv_svDkVCXMGxv-40" target="DGjHxEZLVoVTAHSdxR3i-1" edge="1">
          <mxGeometry width="50" height="50" relative="1" as="geometry">
            <mxPoint x="550" y="280" as="sourcePoint" />
            <mxPoint x="600" y="230" as="targetPoint" />
          </mxGeometry>
        </mxCell>
      </root>
    </mxGraphModel>
  </diagram>
</mxfile>
